<svg width="42" height="42" viewBox="0 0 42 42" fill="none" xmlns="http://www.w3.org/2000/svg">
<rect width="42" height="42" rx="8" fill="#752522"/>
<path fill-rule="evenodd" clip-rule="evenodd" d="M15.9636 8.25C17.7079 8.25 19.2089 9.266 19.9505 10.73C20.692 9.266 22.1931 8.25 23.9373 8.25C25.8889 8.25 27.5395 9.517 28.1535 11.268C28.9971 11.3102 29.8117 11.5908 30.5033 12.0774C31.195 12.5639 31.7355 13.2366 32.0626 14.018C32.3915 14.808 32.4732 15.654 32.3437 16.465C33.1254 17.0922 33.721 17.9222 34.0658 18.865C34.4106 19.8078 34.4913 20.8274 34.2992 21.813C34.267 21.9683 34.2416 22.0964 34.2205 22.2025C34.1503 22.5565 34.1286 22.6658 34.0624 22.7249C34.0328 22.7514 33.9943 22.7677 33.9385 22.7914C33.8194 22.842 33.5098 22.75 33.5098 22.75C33.5164 22.7527 33.2529 22.7249 33.5098 22.75C33.5044 22.7472 33.2248 22.7234 33.2362 22.3696L33.2375 22.3296C33.4362 21.5585 33.4538 20.2999 33.2375 19.5335C33.0213 18.7671 32.6058 18.0722 32.0337 17.52C31.8139 18.0471 31.4955 18.527 31.0958 18.934C31.0498 18.9818 30.9948 19.0198 30.934 19.0461C30.8732 19.0723 30.8078 19.086 30.7416 19.0866C30.6755 19.0872 30.6098 19.0746 30.5486 19.0494C30.4874 19.0243 30.4317 18.9871 30.3849 18.9402C30.3381 18.8933 30.3011 18.8374 30.2761 18.776C30.251 18.7145 30.2384 18.6487 30.239 18.5823C30.2395 18.5159 30.2533 18.4503 30.2794 18.3893C30.3055 18.3283 30.3435 18.2731 30.3911 18.227C30.8523 17.765 31.1752 17.1826 31.3233 16.5458C31.4713 15.9091 31.4386 15.2434 31.2288 14.6244C31.019 14.0053 30.6405 13.4577 30.1362 13.0435C29.6319 12.6293 29.022 12.3651 28.3757 12.281C28.3808 12.3282 28.3872 12.375 28.3935 12.4219C28.408 12.5301 28.4226 12.6384 28.4226 12.75C28.4226 12.8826 28.3701 13.0098 28.2766 13.1036C28.1831 13.1973 28.0564 13.25 27.9242 13.25C27.792 13.25 27.6653 13.1973 27.5718 13.1036C27.4784 13.0098 27.4259 12.8826 27.4259 12.75C27.4259 10.811 25.87 9.25 23.9373 9.25C23.4789 9.24895 23.0248 9.33875 22.6011 9.51427C22.1774 9.68979 21.7924 9.94756 21.4682 10.2728C21.1441 10.598 20.8872 10.9842 20.7122 11.4094C20.5373 11.8345 20.4478 12.2901 20.4488 12.75V28.75C20.448 29.5517 20.7219 30.3293 21.2247 30.9525C21.7274 31.5756 22.4284 32.0064 23.2101 32.1726C23.9919 32.3388 24.8068 32.2304 25.5182 31.8654C25.753 31.745 25.889 31.633 25.9838 31.555C26.1765 31.3964 26.199 30.8778 26.533 31.2129C27.0312 31.75 25.4653 33.492 23.3513 33.213C21.8412 33.013 20.6023 32.061 19.9505 30.772C19.2986 32.061 18.0597 33.014 16.5497 33.212C14.4366 33.492 12.4452 32.224 11.7485 30.234C10.6718 30.1822 9.64978 29.7427 8.86996 28.996C8.34905 28.4925 7.95739 27.87 7.72845 27.1816C7.49951 26.4932 7.44009 25.7594 7.55528 25.043C6.54424 24.2317 5.85216 23.0874 5.60172 21.813C5.40966 20.8274 5.49039 19.8078 5.83515 18.865C6.1799 17.9222 6.7755 17.0922 7.55728 16.465C7.42151 15.639 7.51887 14.7914 7.83835 14.018C8.16536 13.2366 8.70585 12.5638 9.3975 12.0772C10.0892 11.5906 10.9038 11.3101 11.7475 11.268C12.3615 9.517 14.012 8.25 15.9636 8.25ZM15.9636 9.25C15.5052 9.24895 15.0511 9.33875 14.6274 9.51427C14.2036 9.68979 13.8187 9.94756 13.4945 10.2728C13.1704 10.598 12.9134 10.9842 12.7385 11.4094C12.5636 11.8345 12.474 12.2901 12.4751 12.75C12.4751 12.8826 12.4226 13.0098 12.3291 13.1036C12.2357 13.1973 12.1089 13.25 11.9767 13.25C11.8446 13.25 11.7178 13.1973 11.6243 13.1036C11.5309 13.0098 11.4784 12.8826 11.4784 12.75C11.4784 12.6384 11.4929 12.5301 11.5075 12.4219C11.5138 12.375 11.5201 12.3282 11.5252 12.281C10.8785 12.3644 10.2681 12.6282 9.76332 13.0423C9.25856 13.4564 8.87969 14.0042 8.66976 14.6236C8.45984 15.2429 8.42728 15.9089 8.57578 16.5459C8.72429 17.1829 9.0479 17.7653 9.50985 18.227C9.55745 18.2731 9.59542 18.3283 9.62154 18.3893C9.64765 18.4503 9.6614 18.5159 9.66198 18.5823C9.66255 18.6487 9.64994 18.7145 9.62488 18.776C9.59982 18.8374 9.56282 18.8933 9.51603 18.9402C9.46924 18.9871 9.41359 19.0243 9.35235 19.0494C9.2911 19.0746 9.22548 19.0872 9.15931 19.0866C9.09314 19.086 9.02774 19.0723 8.96694 19.0461C8.90614 19.0198 8.85115 18.9818 8.80517 18.934C8.40545 18.527 8.08708 18.0471 7.86726 17.52C7.29514 18.0722 6.87967 18.7671 6.66342 19.5335C6.44717 20.2999 6.43792 21.1102 6.63662 21.8814C6.83532 22.6526 7.23482 23.3568 7.79418 23.9221C8.35354 24.4873 9.05264 24.8931 9.81983 25.098C9.94751 25.1325 10.0563 25.2164 10.1223 25.3314C10.1883 25.4464 10.206 25.5829 10.1717 25.711C10.1373 25.8391 10.0536 25.9483 9.93905 26.0145C9.82447 26.0807 9.68837 26.0985 9.56069 26.064C9.19263 25.9602 8.8365 25.8177 8.49818 25.639C8.48122 26.1286 8.56704 26.6162 8.75008 27.0703C8.93313 27.5245 9.20931 27.9349 9.56069 28.275C9.99412 28.6916 10.5272 28.9892 11.1085 29.1391C11.6898 29.289 12.2998 29.2862 12.8798 29.131C12.943 29.1141 13.009 29.1098 13.074 29.1184C13.1389 29.1271 13.2015 29.1485 13.2582 29.1814C13.3149 29.2143 13.3645 29.2581 13.4044 29.3103C13.4442 29.3625 13.4734 29.422 13.4902 29.4855C13.5071 29.549 13.5114 29.6152 13.5028 29.6803C13.4942 29.7455 13.4728 29.8083 13.44 29.8652C13.4072 29.922 13.3636 29.9719 13.3115 30.0118C13.2595 30.0518 13.2002 30.0811 13.1369 30.098C13.0493 30.1203 12.9612 30.136 12.8734 30.1517C12.8432 30.157 12.8131 30.1624 12.7831 30.168C13.1065 30.9011 13.6712 31.5004 14.3827 31.8654C15.0942 32.2304 15.9091 32.3388 16.6908 32.1726C17.4725 32.0064 18.1735 31.5756 18.6763 30.9525C19.179 30.3293 19.4529 29.5517 19.4521 28.75V12.783C19.4518 12.772 19.4518 12.761 19.4521 12.75C19.4521 10.811 17.8962 9.25 15.9636 9.25ZM15.9138 10.25C15.9304 10.2492 15.947 10.2492 15.9636 10.25C17.3341 10.25 18.4554 11.375 18.4554 12.75C18.4554 12.8826 18.4029 13.0098 18.3094 13.1036C18.216 13.1973 18.0892 13.25 17.957 13.25C17.8249 13.25 17.6981 13.1973 17.6046 13.1036C17.5112 13.0098 17.4587 12.8826 17.4587 12.75C17.4587 11.916 16.7949 11.25 15.9636 11.25C15.8314 11.2566 15.702 11.2103 15.6039 11.1212C15.5058 11.0322 15.4469 10.9076 15.4403 10.775C15.4337 10.6424 15.4799 10.5126 15.5687 10.4141C15.6575 10.3157 15.7816 10.2566 15.9138 10.25ZM23.9373 10.25C24.0695 10.25 24.1963 10.3027 24.2897 10.3964C24.3832 10.4902 24.4357 10.6174 24.4357 10.75C24.4357 10.8826 24.3832 11.0098 24.2897 11.1036C24.1963 11.1973 24.0695 11.25 23.9373 11.25C23.1061 11.25 22.4423 11.916 22.4423 12.75C22.4423 12.8826 22.3898 13.0098 22.2963 13.1036C22.2028 13.1973 22.0761 13.25 21.9439 13.25C21.8117 13.25 21.685 13.1973 21.5915 13.1036C21.4981 13.0098 21.4456 12.8826 21.4456 12.75C21.4456 11.375 22.5669 10.25 23.9373 10.25ZM12.2688 14.088C12.3729 14.0891 12.4741 14.1228 12.5581 14.1845C12.6421 14.2462 12.7047 14.3327 12.7372 14.432C12.9974 15.214 13.5246 15.878 14.2253 16.309C14.2359 16.3156 14.2462 16.3226 14.2562 16.33L14.2662 16.34C14.2764 16.3466 14.2864 16.3536 14.2961 16.361L14.3051 16.373C14.3143 16.3807 14.3233 16.3887 14.332 16.397L14.34 16.408C14.3483 16.417 14.3562 16.4264 14.3639 16.436L14.3708 16.446C14.3785 16.4557 14.3858 16.4657 14.3928 16.476L14.3988 16.486C14.4048 16.4971 14.4105 16.5085 14.4157 16.52L14.4217 16.533C14.4412 16.5743 14.4549 16.618 14.4625 16.663L14.4645 16.676C14.4663 16.6883 14.4677 16.7006 14.4685 16.713V16.727C14.4697 16.7557 14.4683 16.7845 14.4645 16.813L14.4625 16.826C14.4604 16.8384 14.4577 16.8508 14.4546 16.863L14.4506 16.875C14.4433 16.9031 14.4337 16.9306 14.4217 16.957L14.4157 16.969C14.4104 16.9795 14.4048 16.9899 14.3988 17L14.3908 17.012C14.3761 17.036 14.3594 17.0588 14.3409 17.08L14.331 17.09C14.3226 17.0986 14.314 17.107 14.3051 17.115L14.2931 17.125C14.2713 17.1436 14.248 17.1604 14.2233 17.175L14.2114 17.185C14.1865 17.1992 14.1605 17.2113 14.1336 17.221H14.1197C14.0608 17.2399 13.999 17.2477 13.9373 17.244C13.9162 17.242 13.8952 17.2387 13.8745 17.234C13.8627 17.2311 13.8511 17.2278 13.8396 17.224H13.8316C13.8182 17.2202 13.8049 17.2159 13.7918 17.211H13.7798C13.7703 17.206 13.761 17.2006 13.7519 17.195H13.7419C13.7328 17.1903 13.7238 17.1853 13.715 17.18C12.7923 16.6445 11.7092 16.4572 10.6611 16.652C10.531 16.6759 10.3968 16.6469 10.288 16.5715C10.1792 16.4961 10.1048 16.3805 10.081 16.25C10.0572 16.1195 10.086 15.9849 10.1612 15.8757C10.2363 15.7666 10.3516 15.6919 10.4817 15.668C11.0521 15.5677 11.6347 15.5585 12.208 15.641C12.0375 15.3634 11.8978 15.068 11.7913 14.76C11.7659 14.6844 11.7588 14.6037 11.7708 14.5248C11.7828 14.4458 11.8134 14.3709 11.8602 14.3063C11.9069 14.2417 11.9684 14.1892 12.0395 14.1533C12.1106 14.1174 12.1892 14.0992 12.2688 14.1V14.088ZM27.6322 14.1V14.102C27.7118 14.1012 27.7904 14.1194 27.8615 14.1553C27.9326 14.1912 27.994 14.2437 28.0408 14.3083C28.0875 14.3729 28.1182 14.4478 28.1301 14.5268C28.1421 14.6057 28.1351 14.6864 28.1096 14.762C28.0031 15.0697 27.8634 15.3648 27.693 15.642C28.2662 15.5589 28.8489 15.5677 29.4193 15.668C29.5515 15.6919 29.6688 15.7674 29.7454 15.8781C29.8221 15.9887 29.8517 16.1254 29.8279 16.258C29.8042 16.3906 29.7288 16.5083 29.6186 16.5852C29.5083 16.6621 29.3721 16.6919 29.2399 16.668C28.1964 16.4753 27.1186 16.6599 26.1979 17.189H26.1939H26.1859C26.1794 17.1932 26.1727 17.1972 26.166 17.201L26.155 17.211C26.144 17.2174 26.1327 17.2234 26.1212 17.229H26.1102C26.0987 17.2331 26.0871 17.2368 26.0753 17.24H26.0614C26.0498 17.2438 26.0382 17.2471 26.0265 17.25C26.0058 17.2547 25.9848 17.258 25.9637 17.26C25.9026 17.2632 25.8414 17.255 25.7833 17.236C25.7508 17.2262 25.7194 17.2132 25.6896 17.197L25.6776 17.187C25.653 17.1724 25.6296 17.1556 25.6078 17.137L25.5959 17.125C25.5873 17.1176 25.579 17.1099 25.571 17.102L25.561 17.092C25.5425 17.0705 25.5258 17.0474 25.5112 17.023L25.5022 17.012C25.4987 17.0047 25.4954 16.9974 25.4922 16.99C25.4896 16.9862 25.4871 16.9825 25.4846 16.9786L25.4823 16.975C25.4688 16.9461 25.4581 16.916 25.4504 16.885L25.4464 16.873C25.4456 16.8693 25.445 16.8656 25.4443 16.8619C25.4436 16.8579 25.443 16.854 25.4424 16.85C25.4409 16.8434 25.4396 16.8367 25.4384 16.83C25.4335 16.7989 25.4315 16.7675 25.4324 16.736V16.723C25.4336 16.715 25.4349 16.707 25.4364 16.699C25.4369 16.6923 25.4376 16.6857 25.4384 16.679C25.4452 16.6334 25.4583 16.589 25.4773 16.547L25.4833 16.535C25.4858 16.5293 25.4885 16.5236 25.4912 16.518C25.4959 16.5092 25.5009 16.5005 25.5062 16.492C25.51 16.4863 25.514 16.4806 25.5181 16.475C25.5245 16.4654 25.5311 16.4561 25.5381 16.447C25.5454 16.4371 25.553 16.4274 25.561 16.418L25.569 16.408C25.5755 16.4022 25.5821 16.3965 25.5889 16.391C25.5944 16.3855 25.6001 16.3802 25.6059 16.375C25.6155 16.367 25.6255 16.3593 25.6358 16.352L25.6447 16.342C25.6503 16.3379 25.6559 16.3339 25.6617 16.33L25.6756 16.32C26.3763 15.8897 26.903 15.2249 27.1627 14.443C27.1954 14.3438 27.2583 14.2573 27.3425 14.1958C27.4267 14.1343 27.528 14.1008 27.6322 14.1ZM16.4689 15.994C16.5612 15.99 16.6527 16.0119 16.7333 16.0571C16.814 16.1023 16.8805 16.1691 16.9254 16.25C17.3633 17.0132 17.5384 17.8999 17.4236 18.7729C17.3089 19.646 16.9106 20.4568 16.2905 21.08C16.2446 21.1278 16.1896 21.1658 16.1288 21.1921C16.068 21.2183 16.0026 21.232 15.9364 21.2326C15.8702 21.2332 15.8046 21.2206 15.7433 21.1954C15.6821 21.1703 15.6265 21.1331 15.5797 21.0862C15.5329 21.0393 15.4959 20.9834 15.4708 20.922C15.4458 20.8605 15.4331 20.7947 15.4337 20.7283C15.4343 20.6619 15.448 20.5963 15.4742 20.5353C15.5003 20.4743 15.5382 20.4191 15.5858 20.373C16.052 19.9061 16.3514 19.2978 16.4373 18.6426C16.5233 17.9874 16.3911 17.322 16.0613 16.75C16.0169 16.6755 15.9927 16.5907 15.9909 16.504C15.9891 16.4172 16.0098 16.3315 16.0511 16.2553C16.0923 16.179 16.1526 16.1148 16.226 16.069C16.2995 16.0232 16.3825 15.9973 16.4689 15.994ZM23.3802 15.994C23.3971 15.9931 23.4141 15.9931 23.431 15.994C23.5174 15.9973 23.6015 16.0232 23.6749 16.069C23.7484 16.1148 23.8087 16.179 23.8499 16.2553C23.8911 16.3315 23.9118 16.4172 23.9101 16.504C23.9083 16.5907 23.884 16.6755 23.8397 16.75C23.5098 17.322 23.3776 17.9874 23.4636 18.6426C23.5496 19.2978 23.8489 19.9061 24.3151 20.373C24.3627 20.4191 24.4007 20.4743 24.4268 20.5353C24.4529 20.5963 24.4667 20.6619 24.4672 20.7283C24.4678 20.7947 24.4552 20.8605 24.4301 20.922C24.4051 20.9834 24.3681 21.0393 24.3213 21.0862C24.2745 21.1331 24.2188 21.1703 24.1576 21.1954C24.0963 21.2206 24.0307 21.2332 23.9646 21.2326C23.8984 21.232 23.833 21.2183 23.7722 21.1921C23.7114 21.1658 23.6564 21.1278 23.6104 21.08C22.9903 20.4568 22.5921 19.646 22.4773 18.7729C22.3625 17.8999 22.5376 17.0132 22.9755 16.25C23.0161 16.1767 23.0745 16.1148 23.1452 16.0701C23.2159 16.0254 23.2967 15.9992 23.3802 15.994ZM8.0676 20.648C8.0842 20.6472 8.10083 20.6472 8.11743 20.648C8.22645 20.6503 8.33169 20.6885 8.41703 20.7566C8.50236 20.8247 8.56308 20.919 8.58988 21.025C8.72544 21.535 8.99355 21.999 9.36433 22.371C9.41193 22.4171 9.4499 22.4723 9.47602 22.5333C9.50213 22.5943 9.51588 22.6599 9.51646 22.7263C9.51703 22.7927 9.50442 22.8585 9.47936 22.92C9.4543 22.9814 9.4173 23.0373 9.37051 23.0842C9.32372 23.1311 9.26808 23.1683 9.20683 23.1934C9.14558 23.2185 9.07996 23.2312 9.01378 23.2306C8.94761 23.23 8.88222 23.2163 8.82142 23.1901C8.76062 23.1638 8.70563 23.1258 8.65965 23.078C8.16484 22.5808 7.80907 21.9617 7.62805 21.283C7.60791 21.2119 7.60375 21.1371 7.61587 21.0642C7.62798 20.9913 7.65608 20.9219 7.69812 20.8612C7.74016 20.8005 7.79511 20.7498 7.859 20.713C7.92289 20.6761 7.99413 20.6539 8.0676 20.648ZM14.9709 25.246C15.0681 25.2464 15.1632 25.2753 15.2443 25.3292C15.3254 25.3831 15.389 25.4596 15.4272 25.5494C15.4655 25.6391 15.4767 25.7381 15.4596 25.8342C15.4424 25.9302 15.3976 26.0192 15.3307 26.09H15.3287C15.32 26.0987 15.3111 26.107 15.3018 26.115L15.2918 26.125C15.2821 26.133 15.2722 26.1407 15.2619 26.148L15.2529 26.158C15.2429 26.165 15.2326 26.1717 15.222 26.178H15.2181L15.2101 26.188C14.5154 26.6189 13.9934 27.2807 13.7349 28.058C13.6932 28.184 13.6032 28.2882 13.4849 28.3476C13.3666 28.407 13.2296 28.4169 13.104 28.375C12.9785 28.3331 12.8746 28.2429 12.8154 28.1242C12.7561 28.0054 12.7463 27.868 12.7881 27.742C12.8917 27.43 13.0392 27.138 13.2047 26.859C12.6316 26.9425 12.0489 26.934 11.4784 26.834C11.4104 26.8257 11.3448 26.8036 11.2857 26.769C11.2265 26.7344 11.1751 26.688 11.1344 26.6327C11.0938 26.5774 11.0649 26.5143 11.0494 26.4474C11.034 26.3805 11.0323 26.3111 11.0446 26.2435C11.0568 26.1759 11.0827 26.1115 11.1207 26.0544C11.1586 25.9972 11.2078 25.9484 11.2652 25.911C11.3227 25.8735 11.3871 25.8483 11.4546 25.8368C11.5221 25.8253 11.5913 25.8277 11.6578 25.844C12.706 26.0375 13.7886 25.8504 14.7117 25.316H14.7157C14.7387 25.3024 14.7627 25.2907 14.7875 25.281C14.799 25.2769 14.8106 25.2732 14.8224 25.27H14.8343H14.8363C14.88 25.2572 14.9253 25.2505 14.9709 25.25V25.246ZM17.9491 28.244C18.0157 28.2429 18.0818 28.2553 18.1436 28.2803C18.2054 28.3053 18.2616 28.3425 18.3088 28.3897C18.356 28.4369 18.3933 28.4931 18.4185 28.5549C18.4436 28.6168 18.4562 28.6832 18.4554 28.75C18.4554 30.125 17.3341 31.25 15.9636 31.25C15.8314 31.25 15.7047 31.1973 15.6112 31.1036C15.5177 31.0098 15.4652 30.8826 15.4652 30.75C15.4652 30.6174 15.5177 30.4902 15.6112 30.3964C15.7047 30.3027 15.8314 30.25 15.9636 30.25C16.7949 30.25 17.4587 29.584 17.4587 28.75C17.4571 28.6177 17.5078 28.4902 17.5997 28.3954C17.6916 28.3005 17.8172 28.2461 17.9491 28.244Z" fill="white"/>
<path d="M28.7237 20.7837C27.3907 20.7837 26.0515 21.29 25.0345 22.3027C23.0006 24.3281 23.0006 27.6195 25.0345 29.645C26.7835 31.3866 29.4616 31.622 31.4724 30.3684L34.8543 33.7501L36.4999 32.1043L33.1182 28.7408C34.3902 26.7334 34.1492 24.0496 32.3948 22.3027C31.3778 21.29 30.0564 20.7837 28.7237 20.7837ZM28.4162 22.3027C28.9325 22.2653 29.4509 22.3349 29.9391 22.5072C30.4273 22.6794 30.8746 22.9506 31.2532 23.3037C31.6317 23.6567 31.9333 24.0842 32.1391 24.5592C32.3449 25.0342 32.4504 25.5465 32.449 26.0642C32.449 27.0618 32.0527 28.0186 31.3473 28.724C30.6419 29.4294 29.6851 29.8257 28.6875 29.8257C27.6899 29.8257 26.7331 29.4294 26.0277 28.724C25.3223 28.0186 24.926 27.0618 24.926 26.0642C24.9235 25.1118 25.2823 24.194 25.9301 23.4959C26.5779 22.7978 27.4663 22.3714 28.4162 22.3027Z" fill="#F5F1EA"/>
</svg>
